:SAMPLES-PER-SECOND 30
:FRAME-RANGE 1-663
:FULLY-SPECIFIED
:DEGREES
353
root  29.8956 39.1622 46.4861 174.629 13.7614 178.885
RightUpLeg  -19.4635 -1.03148 -6.27842
RightLeg  23.5293 -5.35614 -2.7586
RightFoot  0.907507 -1.56791 14.5977
RightToes  2.91037e-010 0 -3.6325e-017
Spine  9.07887 -0.602665 -0.955204
Spine1  -2.82683 0.769141 -9.20981
HEad  10.4236 12.789 -0.71759
LeftShoulder1  1.90809 -2.36802 -26.3619
LeftArm  9.01123 -4.01067 -38.9279
LeftForeArm  -6.84082 -54.4098 -16.3977
LeftHand  0.120717 4.26059 -16.1977
RightShoulder  2.805 1.68106 47.4777
RightArm  -5.3252 -7.65847 9.98431
RightForeArm  -7.73527 64.6747 25.9096
RightHand  -0.00639303 -5.15885 20.0571
LeftUpLeg  2.42071 6.91653 -5.22394
LeftLeg  14.059 7.6366 -0.866085
LeftFoot  -12.9081 0.134071 4.12813
LeftToes  -4.9116e-011 5.71383e-011 -3.31847e-011
354
root  30.187 39.1668 45.3595 174.981 11.3088 179.037
RightUpLeg  -16.9569 -3.10156 -6.21272
RightLeg  8.1739 -6.3437 -1.47145
RightFoot  2.42836 -1.84577 15.3407
RightToes  2.91037e-010 0 -3.6325e-017
Spine  8.81985 -0.839965 0.117971
Spine1  -3.14358 0.788829 -9.79118
HEad  10.4896 11.3795 -0.441788
LeftShoulder1  1.94027 -2.4659 -26.3693
LeftArm  9.95598 -4.69752 -39.0978
LeftForeArm  -7.15422 -54.2724 -16.3349
LeftHand  0.118646 4.26176 -15.9869
RightShoulder  2.30754 0.728763 47.8992
RightArm  -5.31666 -7.13752 9.75075
RightForeArm  -7.78434 64.7372 25.999
RightHand  -0.0624131 -5.4632 20.2052
LeftUpLeg  4.83146 6.91177 -4.70466
LeftLeg  12.6641 4.88461 -1.46823
LeftFoot  -14.0328 0.166882 3.51338
LeftToes  -4.9116e-011 5.71383e-011 -3.31847e-011
355
root  30.5124 39.0343 44.1003 174.271 8.61617 179.07
RightUpLeg  -13.8583 -4.5698 -6.63402
RightLeg  -3.44934 -5.00945 0.142007
RightFoot  2.04114 -1.81462 15.5004
RightToes  2.91037e-010 0 -3.6325e-017
Spine  8.4531 -1.15007 0.960666
Spine1  -2.29006 0.747068 -10.5198
HEad  10.5926 10.5742 -0.404855
LeftShoulder1  1.9772 -2.55209 -26.5227
LeftArm  10.6271 -5.58074 -38.8419
LeftForeArm  -7.82703 -54.0462 -16.2441
LeftHand  0.10205 4.37344 -15.9559
RightShoulder  2.23959 0.581481 48.1777
RightArm  -5.20854 -6.63003 9.44038
RightForeArm  -8.03667 64.6665 25.9295
RightHand  -0.0299352 -5.28734 20.0071
LeftUpLeg  7.9185 7.74285 -3.58068
LeftLeg  12.8122 1.54396 -2.39426
LeftFoot  -16.0519 0.219939 3.00275
LeftToes  -4.9116e-011 5.71383e-011 -3.31847e-011
356
root  30.8813 38.8298 42.8019 173.638 6.06293 178.849
RightUpLeg  -13.6188 -4.74645 -7.26212
RightLeg  -5.69759 -1.00499 -0.442258
RightFoot  -1.19308 -1.43169 15.9365
RightToes  2.91037e-010 0 -3.6325e-017
Spine  7.68252 -1.16743 0.900133
Spine1  -1.07191 0.798181 -10.4183
HEad  10.8545 10.4949 -0.650026
LeftShoulder1  2.00692 -2.52689 -27.1731
LeftArm  11.3522 -6.73715 -38.2599
LeftForeArm  -8.48601 -53.6503 -16.0489
LeftHand  0.0823287 4.50238 -15.8277
RightShoulder  2.47566 1.00963 48.1768
RightArm  -4.93869 -5.96917 9.05087
RightForeArm  -8.54236 64.2916 25.4853
RightHand  -0.0386958 -5.33419 20.4213
LeftUpLeg  10.8312 8.108 -2.73737
LeftLeg  13.1401 -1.56921 -2.83608
LeftFoot  -18.1352 0.269015 2.69699
LeftToes  -4.9116e-011 5.71383e-011 -3.31847e-011
357
root  31.2505 38.6382 41.5349 173.312 4.06319 179.071
RightUpLeg  -12.7291 -4.49736 -7.00661
RightLeg  -4.36406 0.3009 -1.07107
RightFoot  -1.70509 -1.39127 16.2653
RightToes  2.91037e-010 0 -3.6325e-017
Spine  7.11887 -0.968681 1.50423
Spine1  0.136793 0.917717 -9.85635
HEad  11.3025 11.1915 -1.37115
LeftShoulder1  2.00338 -2.39746 -27.8621
LeftArm  11.5462 -7.42014 -37.6143
LeftForeArm  -9.28256 -53.2813 -15.8839
LeftHand  0.0631171 4.62972 -15.6971
RightShoulder  2.9212 1.82713 48.0915
RightArm  -4.49723 -4.76695 8.85608
RightForeArm  -9.92616 63.3746 24.4745
RightHand  -0.038164 -5.33106 20.5315
LeftUpLeg  13.1951 8.24087 -1.65659
LeftLeg  13.725 -4.02849 -2.61249
LeftFoot  -19.9733 0.285525 2.19387
LeftToes  -4.9116e-011 5.71383e-011 -3.31847e-011
358
root  31.6376 38.4873 40.2857 173.479 2.05412 179.943
RightUpLeg  -12.7472 -3.71748 -5.94728
RightLeg  0.242311 -0.913825 -1.52401
RightFoot  3.08624 -1.89379 15.0505
RightToes  2.91037e-010 0 -3.6325e-017
Spine  5.55163 -0.91506 2.37981
Spine1  2.60705 0.738759 -8.02802
HEad  10.9708 13.019 -2.88265
LeftShoulder1  1.92704 -1.9536 -29.2524
LeftArm  11.1304 -8.083 -36.1807
LeftForeArm  -9.85089 -53.3043 -15.9391
LeftHand  0.0572098 4.67428 -15.7919
RightShoulder  3.61187 3.14621 47.6264
RightArm  -3.87991 -2.63102 8.77635
RightForeArm  -11.8015 62.3485 23.4635
RightHand  -0.0429088 -5.35658 20.4713
LeftUpLeg  14.7596 7.77376 -0.179546
LeftLeg  14.4865 -6.08408 -1.87659
LeftFoot  -21.6187 0.26796 1.53606
LeftToes  -4.9116e-011 5.71383e-011 -3.31847e-011
359
root  32.0118 38.4111 39.051 173.534 0.0546732 -179.113
RightUpLeg  -13.1206 -3.47208 -5.08712
RightLeg  3.76541 -0.82727 -1.40381
RightFoot  10.0632 -2.46026 13.3333
RightToes  2.91037e-010 0 -3.6325e-017
Spine  4.57574 -0.955845 3.11695
Spine1  3.96573 0.37568 -5.91686
HEad  10.2206 15.5958 -4.71415
LeftShoulder1  1.85816 -1.58256 -30.4885
LeftArm  10.3577 -7.77484 -34.6933
LeftForeArm  -10.4885 -53.6762 -16.2118
LeftHand  -0.00179163 5.08293 -15.887
RightShoulder  4.56622 5.05966 46.7146
RightArm  -3.45451 -1.19794 9.02271
RightForeArm  -13.2434 60.8643 22.0355
RightHand  -0.0543466 -5.41872 20.3223
LeftUpLeg  15.6008 4.96785 0.68371
LeftLeg  16.3782 -5.78803 -1.21834
LeftFoot  -22.3422 0.0677496 -0.689028
LeftToes  -4.9116e-011 5.71383e-011 -3.31847e-011
360
root  32.415 38.34 37.7705 173.644 -1.74237 -178.037
RightUpLeg  -14.6169 -3.45906 -4.28625
RightLeg  11.1085 -1.73027 -0.859078
RightFoot  6.99736 -1.77923 11.2886
RightToes  2.91037e-010 0 -3.6325e-017
Spine  3.75137 -0.86073 3.81826
Spine1  4.54954 0.0880187 -3.76865
HEad  10.3407 19.8123 -5.99339
LeftShoulder1  1.78453 -1.31345 -31.0027
LeftArm  9.41345 -6.74307 -34.3791
LeftForeArm  -11.0642 -53.246 -15.9912
LeftHand  0.0125051 4.9822 -15.7408
RightShoulder  5.69107 7.54685 45.0501
RightArm  -2.85691 -0.607522 9.76911
RightForeArm  -14.9882 59.339 20.7475
RightHand  -0.0593173 -5.4491 19.8802
LeftUpLeg  14.9478 1.41557 1.7395
LeftLeg  20.918 -3.68661 -1.22236
LeftFoot  -22.1207 -0.244469 -3.9964
LeftToes  -4.9116e-011 5.71383e-011 -3.31847e-011
361
root  32.7969 38.2842 36.5776 173.644 -3.59231 -176.674
RightUpLeg  -14.7359 -6.10085 -2.80506
RightLeg  15.6374 -1.01277 -0.281573
RightFoot  4.02481 -1.26446 9.5572
RightToes  2.91037e-010 0 -3.6325e-017
Spine  3.40114 -0.815202 5.44737
Spine1  4.9211 0.066731 -2.08191
HEad  10.6809 24.1551 -6.68004
LeftShoulder1  1.69863 -1.10285 -30.8275
LeftArm  8.34761 -5.61589 -34.7605
LeftForeArm  -11.4521 -52.7427 -15.7194
LeftHand  -0.00540015 5.10438 -15.5559
RightShoulder  6.82321 10.1196 43.7379
RightArm  -2.25459 -0.135312 10.4746
RightForeArm  -17.1551 57.5547 19.4151
RightHand  -0.0687641 -5.5033 19.6804
LeftUpLeg  12.097 0.203298 4.19313
LeftLeg  29.0236 -3.1602 -1.55377
LeftFoot  -19.9917 -0.608586 -9.61076
LeftToes  -4.9116e-011 5.71383e-011 -3.31847e-011
362
root  33.1842 38.2625 35.4704 173.656 -6.55207 -175.237
RightUpLeg  -14.1314 -8.64797 -1.49499
RightLeg  18.6908 -1.79307 -0.188796
RightFoot  0.757452 -0.94148 8.91548
RightToes  2.91037e-010 0 -3.6325e-017
Spine  3.31948 -0.853921 7.58896
Spine1  5.33965 0.254609 -0.925929
HEad  10.7609 26.8696 -6.74183
LeftShoulder1  1.66746 -1.04375 -30.6186
LeftArm  7.96953 -5.83206 -35.0061
LeftForeArm  -11.684 -52.1696 -15.4042
LeftHand  0.01278 4.97511 -15.4542
RightShoulder  7.28231 11.2782 42.9713
RightArm  -1.69402 1.4976 11.2028
RightForeArm  -19.09 55.488 18.0139
RightHand  -0.0603832 -5.45307 20.1024
LeftUpLeg  6.72352 -0.084868 7.32613
LeftLeg  39.2777 -1.94684 -1.33372
LeftFoot  -12.7685 -0.111834 -15.0203
LeftToes  -4.9116e-011 5.71383e-011 -3.31847e-011
363
root  33.5346 38.2026 34.4375 173.701 -9.50465 -173.843
RightUpLeg  -13.5443 -10.0001 -0.228785
RightLeg  21.2285 -3.03754 -0.359193
RightFoot  -2.55987 -0.695389 8.81172
RightToes  2.91037e-010 0 -3.6325e-017
Spine  3.34447 -0.816301 10.3561
Spine1  5.50685 0.762407 -1.09802
HEad  10.2294 28.3948 -6.64742
LeftShoulder1  1.64924 -1.07365 -29.9735
LeftArm  8.33225 -7.34651 -35.2602
LeftForeArm  -12.3935 -51.1909 -14.9084
LeftHand  0.0566534 4.64841 -15.0146
RightShoulder  7.86437 12.6398 42.4487
RightArm  -1.14922 3.43381 11.749
RightForeArm  -21.0095 53.351 16.7305
RightHand  -0.0376993 -5.32828 20.6688
LeftUpLeg  -0.178185 -0.381754 9.94286
LeftLeg  49.6054 -0.320888 0.0291617
LeftFoot  -1.76273 1.21954 -14.3691
LeftToes  -4.9116e-011 5.71383e-011 -3.31847e-011
